<svg width="18" height="17" viewBox="0 0 18 17" fill="none" xmlns="http://www.w3.org/2000/svg">
<path d="M9.92521 0C10.9377 0.00254994 11.4515 0.00764982 11.8952 0.0195495L12.0698 0.0254994C12.2714 0.0322992 12.4703 0.040799 12.7106 0.0509988C13.6681 0.0934978 14.3215 0.236295 14.8948 0.44624C15.4887 0.662135 15.9891 0.954528 16.4895 1.42627C16.9471 1.85117 17.3012 2.36515 17.5271 2.93243C17.7494 3.47387 17.9006 4.09095 17.9456 4.99618C17.9564 5.22228 17.9654 5.41012 17.9726 5.60137L17.978 5.76627C17.9915 6.18446 17.9969 6.66979 17.9987 7.62602L17.9996 8.26011V9.37358C18.0018 9.99356 17.9949 10.6135 17.9789 11.2333L17.9735 11.3982C17.9663 11.5895 17.9573 11.7773 17.9465 12.0034C17.9015 12.9086 17.7485 13.5249 17.5271 14.0672C17.3018 14.6348 16.9477 15.1489 16.4895 15.5733C16.0395 16.0054 15.4953 16.3398 14.8948 16.5534C14.3215 16.7633 13.6681 16.9061 12.7106 16.9486C12.497 16.9581 12.2834 16.9666 12.0698 16.9741L11.8952 16.9792C11.4515 16.9911 10.9377 16.9971 9.92521 16.9988L9.25385 16.9996H8.07581C7.41907 17.0017 6.76234 16.9952 6.10581 16.9801L5.93122 16.975C5.71758 16.9673 5.50398 16.9585 5.29045 16.9486C4.3329 16.9061 3.67953 16.7633 3.10536 16.5534C2.50479 16.3403 1.96081 16.0058 1.51154 15.5733C1.05351 15.1486 0.699085 14.6346 0.472995 14.0672C0.250707 13.5257 0.0995141 12.9086 0.0545165 12.0034C0.0444899 11.8017 0.0354903 11.6 0.0275179 11.3982L0.0230182 11.2333C0.0064339 10.6135 -0.00106652 9.99357 0.000519274 9.37358V7.62602C-0.00199247 7.00605 0.0046079 6.38607 0.0203183 5.76627L0.026618 5.60137C0.0338176 5.41012 0.0428171 5.22228 0.0536166 4.99618C0.0986143 4.09095 0.249806 3.47472 0.472095 2.93243C0.698086 2.36456 1.05321 1.85043 1.51244 1.42627C1.9616 0.99403 2.50522 0.659574 3.10536 0.44624C3.67953 0.236295 4.332 0.0934978 5.29045 0.0509988C5.52984 0.040799 5.72963 0.0322992 5.93122 0.0254994L6.10581 0.0203995C6.76205 0.00529768 7.41848 -0.00121946 8.07491 0.000849919L9.92521 0ZM9.00006 4.2499C7.80665 4.2499 6.66211 4.69766 5.81824 5.49467C4.97437 6.29168 4.50029 7.37266 4.50029 8.4998C4.50029 9.62694 4.97437 10.7079 5.81824 11.5049C6.66211 12.3019 7.80665 12.7497 9.00006 12.7497C10.1935 12.7497 11.338 12.3019 12.1819 11.5049C13.0257 10.7079 13.4998 9.62694 13.4998 8.4998C13.4998 7.37266 13.0257 6.29168 12.1819 5.49467C11.338 4.69766 10.1935 4.2499 9.00006 4.2499ZM9.00006 5.94986C9.35461 5.9498 9.7057 6.01571 10.0333 6.1438C10.3609 6.2719 10.6585 6.45968 10.9093 6.69642C11.16 6.93317 11.3589 7.21424 11.4947 7.52359C11.6304 7.83294 11.7003 8.16451 11.7004 8.49938C11.7004 8.83424 11.6307 9.16583 11.495 9.47523C11.3594 9.78462 11.1606 10.0658 10.9099 10.3026C10.6593 10.5394 10.3617 10.7273 10.0341 10.8555C9.70658 10.9837 9.35551 11.0497 9.00096 11.0497C8.28491 11.0497 7.59819 10.7811 7.09187 10.3029C6.58555 9.82467 6.3011 9.17609 6.3011 8.4998C6.3011 7.82351 6.58555 7.17493 7.09187 6.69672C7.59819 6.21851 8.28491 5.94986 9.00096 5.94986M13.7257 2.97493C13.4274 2.97493 13.1412 3.08687 12.9303 3.28612C12.7193 3.48537 12.6008 3.75562 12.6008 4.03741C12.6008 4.31919 12.7193 4.58944 12.9303 4.78869C13.1412 4.98794 13.4274 5.09988 13.7257 5.09988C14.0241 5.09988 14.3102 4.98794 14.5212 4.78869C14.7321 4.58944 14.8507 4.31919 14.8507 4.03741C14.8507 3.75562 14.7321 3.48537 14.5212 3.28612C14.3102 3.08687 14.0241 2.97493 13.7257 2.97493Z" fill="white"/>
</svg>
