<svg xmlns="http://www.w3.org/2000/svg" width="126" height="126" viewBox="0 0 126 126" fill="none">
<path fill-rule="evenodd" clip-rule="evenodd" d="M54.5041 3.51418C56.631 1.39001 59.4768 0.140112 62.4799 0.0110843C65.4831 -0.117943 68.4256 0.88327 70.7268 2.81719L71.4959 3.52019L82.9118 14.9304H99.0504C102.081 14.9309 105 16.0766 107.221 18.138C109.443 20.1993 110.804 23.024 111.031 26.0462L111.067 26.9474V43.0864L122.483 54.5026C124.609 56.6298 125.86 59.4768 125.989 62.4815C126.118 65.4861 125.116 68.4299 123.18 70.7316L122.477 71.4947L111.061 82.9109V99.0498C111.062 102.082 109.917 105.002 107.856 107.225C105.794 109.448 102.969 110.809 99.9456 111.037L99.0504 111.067H82.9178L71.5019 122.483C69.3747 124.609 66.5277 125.86 63.5231 125.989C60.5186 126.118 57.5748 125.116 55.2732 123.18L54.5101 122.483L43.0942 111.067H26.9496C23.9179 111.068 20.9979 109.923 18.7749 107.861C16.5519 105.8 15.1902 102.974 14.9628 99.9511L14.9328 99.0498V82.9109L3.51685 71.4947C1.39104 69.3674 0.140113 66.5204 0.0110759 63.5158C-0.117961 60.5111 0.884273 57.5673 2.81987 55.2656L3.51685 54.5026L14.9328 43.0864V26.9474C14.9334 23.9167 16.079 20.9981 18.1403 18.7764C20.2016 16.5546 23.0262 15.1937 26.0483 14.9664L26.9496 14.9304H43.0882L54.5041 3.51418ZM81.4999 44.8709L56.0002 70.3711L45.3774 59.748C44.2499 58.6214 42.7212 57.9887 41.1273 57.9893C39.5335 57.9899 38.0051 58.6236 36.8785 59.751C35.7519 60.8785 35.1192 62.4073 35.1198 64.0012C35.1204 65.5951 35.7541 67.1234 36.8815 68.2501L51.3257 82.6946C51.9394 83.3086 52.6682 83.7958 53.4702 84.1281C54.2723 84.4605 55.132 84.6315 56.0002 84.6315C56.8684 84.6315 57.7281 84.4605 58.5302 84.1281C59.3322 83.7958 60.061 83.3086 60.6747 82.6946L89.9957 53.367C91.0902 52.2337 91.6958 50.716 91.6821 49.1405C91.6684 47.5651 91.0365 46.0581 89.9225 44.9441C88.8085 43.8301 87.3016 43.1981 85.7262 43.1845C84.1508 43.1708 82.6331 43.7764 81.4999 44.8709Z" fill="#f1691e"/>
</svg>